<svg xmlns="http://www.w3.org/2000/svg" xmlns:xlink="http://www.w3.org/1999/xlink" width="500" zoomAndPan="magnify" viewBox="0 0 375 374.999991" height="500" preserveAspectRatio="xMidYMid meet" version="1.0"><defs><g/><clipPath id="id1"><path d="M 37.5 151.378906 L 337.5 151.378906 L 337.5 223.378906 L 37.5 223.378906 Z M 37.5 151.378906 " clip-rule="nonzero"/></clipPath><clipPath id="id2"><path d="M 124.574219 156.085938 L 330.074219 156.085938 L 330.074219 219.085938 L 124.574219 219.085938 Z M 124.574219 156.085938 " clip-rule="nonzero"/></clipPath><clipPath id="id3"><path d="M 49.164062 159.4375 L 115.914062 159.4375 L 115.914062 203 L 49.164062 203 Z M 49.164062 159.4375 " clip-rule="nonzero"/></clipPath><clipPath id="id4"><path d="M 58 205 L 107 205 L 107 215.6875 L 58 215.6875 Z M 58 205 " clip-rule="nonzero"/></clipPath></defs><g clip-path="url(#id1)"><path fill="#0092ef" d="M 325.054688 223.378906 L 49.945312 223.378906 C 43.09375 223.378906 37.507812 217.816406 37.507812 210.984375 L 37.507812 163.777344 C 37.507812 156.945312 43.09375 151.378906 49.945312 151.378906 L 325.054688 151.378906 C 331.90625 151.378906 337.492188 156.945312 337.492188 163.777344 L 337.492188 210.984375 C 337.492188 217.816406 331.90625 223.378906 325.054688 223.378906 " fill-opacity="1" fill-rule="nonzero"/></g><g clip-path="url(#id2)"><path fill="#ffffff" d="M 318.257812 219.085938 L 136.390625 219.085938 C 129.878906 219.085938 124.574219 213.753906 124.574219 207.214844 L 124.574219 167.960938 C 124.574219 161.417969 129.878906 156.085938 136.390625 156.085938 L 318.257812 156.085938 C 324.765625 156.085938 330.074219 161.417969 330.074219 167.960938 L 330.074219 207.214844 C 330.074219 213.753906 324.765625 219.085938 318.257812 219.085938 " fill-opacity="1" fill-rule="nonzero"/></g><g clip-path="url(#id3)"><path fill="#ffffff" d="M 110.324219 169.054688 C 107.585938 169.054688 105.257812 171.246094 105.257812 174.128906 C 105.257812 175.503906 105.808594 176.738281 106.628906 177.703125 L 96.496094 187.585938 L 85.824219 170.5625 C 87.464844 169.464844 88.695312 167.539062 88.695312 165.480469 C 88.695312 162.1875 85.960938 159.441406 82.671875 159.441406 C 79.394531 159.441406 76.652344 162.1875 76.652344 165.480469 C 76.652344 167.679688 77.75 169.464844 79.527344 170.5625 L 68.578125 187.585938 L 58.316406 177.5625 C 59.136719 176.605469 59.679688 175.363281 59.679688 173.996094 C 59.679688 171.246094 57.492188 168.914062 54.621094 168.914062 C 51.878906 168.914062 49.554688 171.109375 49.554688 173.996094 C 49.554688 176.738281 51.746094 179.070312 54.621094 179.070312 C 54.890625 179.070312 55.164062 179.070312 55.574219 178.9375 L 60.367188 202.140625 L 104.710938 202.140625 L 109.503906 178.9375 C 109.773438 178.9375 110.046875 179.070312 110.457031 179.070312 C 113.199219 179.070312 115.523438 176.878906 115.523438 173.996094 C 115.382812 171.246094 113.199219 169.054688 110.324219 169.054688 " fill-opacity="1" fill-rule="nonzero"/></g><g clip-path="url(#id4)"><path fill="#ffffff" d="M 58.316406 215.730469 L 106.761719 215.730469 L 104.160156 205.019531 L 60.917969 205.019531 L 58.316406 215.730469 " fill-opacity="1" fill-rule="nonzero"/></g><g fill="#0092ef" fill-opacity="1"><g transform="translate(130.292494, 204.112369)"><g><path d="M 16.03125 -34.3125 C 20.351562 -34.3125 22.515625 -32.015625 22.515625 -27.421875 L 22.515625 0 L 15.203125 0 L 15.203125 -11.328125 L 9.921875 -11.328125 L 9.921875 0 L 2.609375 0 L 2.609375 -27.421875 C 2.609375 -32.015625 4.769531 -34.3125 9.09375 -34.3125 Z M 9.921875 -16.96875 L 15.203125 -16.96875 L 15.203125 -28.3125 C 15.203125 -28.59375 15.101562 -28.835938 14.90625 -29.046875 C 14.71875 -29.253906 14.484375 -29.359375 14.203125 -29.359375 L 10.921875 -29.359375 C 10.640625 -29.359375 10.398438 -29.253906 10.203125 -29.046875 C 10.015625 -28.835938 9.921875 -28.59375 9.921875 -28.3125 Z M 9.921875 -16.96875 "/></g></g></g><g fill="#0092ef" fill-opacity="1"><g transform="translate(155.624275, 204.112369)"><g><path d="M 13.21875 -26.015625 L 14.578125 -26.015625 L 14.578125 -19.21875 L 11.125 -19.21875 C 9.9375 -19.21875 9.34375 -18.609375 9.34375 -17.390625 L 9.34375 0 L 2.34375 0 L 2.34375 -25.484375 L 8.71875 -25.484375 L 8.71875 -23.03125 C 9.726562 -25.019531 11.226562 -26.015625 13.21875 -26.015625 Z M 13.21875 -26.015625 "/></g></g></g><g fill="#0092ef" fill-opacity="1"><g transform="translate(170.980037, 204.112369)"><g><path d="M 21.203125 -25.484375 L 21.203125 1.9375 C 21.203125 6.53125 19.046875 8.828125 14.734375 8.828125 L 9.5 8.828125 C 5.1875 8.828125 3.03125 6.53125 3.03125 1.9375 L 3.03125 1.09375 L 9.34375 1.09375 L 9.34375 2.765625 C 9.34375 3.046875 9.4375 3.289062 9.625 3.5 C 9.820312 3.707031 10.0625 3.8125 10.34375 3.8125 L 13.21875 3.8125 C 13.5 3.8125 13.734375 3.707031 13.921875 3.5 C 14.109375 3.289062 14.203125 3.046875 14.203125 2.765625 L 14.203125 -2.453125 C 13.128906 -1.617188 11.703125 -1.203125 9.921875 -1.203125 L 8.828125 -1.203125 C 4.503906 -1.203125 2.34375 -3.5 2.34375 -8.09375 L 2.34375 -19.125 C 2.34375 -23.71875 4.503906 -26.015625 8.828125 -26.015625 L 9.921875 -26.015625 C 12.429688 -26.015625 14.222656 -25.210938 15.296875 -23.609375 L 15.296875 -25.484375 Z M 14.203125 -7.265625 L 14.203125 -19.953125 C 14.203125 -20.234375 14.109375 -20.476562 13.921875 -20.6875 C 13.734375 -20.894531 13.5 -21 13.21875 -21 L 10.34375 -21 C 10.0625 -21 9.820312 -20.894531 9.625 -20.6875 C 9.4375 -20.476562 9.34375 -20.234375 9.34375 -19.953125 L 9.34375 -7.265625 C 9.34375 -6.984375 9.4375 -6.738281 9.625 -6.53125 C 9.820312 -6.320312 10.0625 -6.21875 10.34375 -6.21875 L 13.21875 -6.21875 C 13.5 -6.21875 13.734375 -6.320312 13.921875 -6.53125 C 14.109375 -6.738281 14.203125 -6.984375 14.203125 -7.265625 Z M 14.203125 -7.265625 "/></g></g></g><g fill="#0092ef" fill-opacity="1"><g transform="translate(194.588213, 204.112369)"><g><path d="M 14.734375 -26.015625 C 19.046875 -26.015625 21.203125 -23.71875 21.203125 -19.125 L 21.203125 -10.859375 L 9.34375 -10.859375 L 9.34375 -5.53125 C 9.34375 -5.257812 9.4375 -5.015625 9.625 -4.796875 C 9.820312 -4.585938 10.0625 -4.484375 10.34375 -4.484375 L 13.21875 -4.484375 C 13.5 -4.484375 13.734375 -4.585938 13.921875 -4.796875 C 14.109375 -5.015625 14.203125 -5.257812 14.203125 -5.53125 L 14.203125 -8.359375 L 21.203125 -8.359375 L 21.203125 -6.375 C 21.203125 -1.78125 19.046875 0.515625 14.734375 0.515625 L 8.828125 0.515625 C 4.503906 0.515625 2.34375 -1.78125 2.34375 -6.375 L 2.34375 -19.125 C 2.34375 -23.71875 4.503906 -26.015625 8.828125 -26.015625 Z M 9.34375 -15.46875 L 14.203125 -15.46875 L 14.203125 -20.15625 C 14.203125 -20.4375 14.109375 -20.679688 13.921875 -20.890625 C 13.734375 -21.097656 13.5 -21.203125 13.21875 -21.203125 L 10.34375 -21.203125 C 10.0625 -21.203125 9.820312 -21.097656 9.625 -20.890625 C 9.4375 -20.679688 9.34375 -20.4375 9.34375 -20.15625 Z M 9.34375 -15.46875 "/></g></g></g><g fill="#0092ef" fill-opacity="1"><g transform="translate(217.308464, 204.112369)"><g><path d="M 9.34375 0 L 2.34375 0 L 2.34375 -25.484375 L 8.71875 -25.484375 L 8.71875 -24.1875 C 9.800781 -25.40625 11.441406 -26.015625 13.640625 -26.015625 L 14.734375 -26.015625 C 19.046875 -26.015625 21.203125 -23.71875 21.203125 -19.125 L 21.203125 0 L 14.203125 0 L 14.203125 -19.953125 C 14.203125 -20.234375 14.109375 -20.476562 13.921875 -20.6875 C 13.734375 -20.894531 13.5 -21 13.21875 -21 L 10.34375 -21 C 10.0625 -21 9.820312 -20.894531 9.625 -20.6875 C 9.4375 -20.476562 9.34375 -20.234375 9.34375 -19.953125 Z M 9.34375 0 "/></g></g></g><g fill="#0092ef" fill-opacity="1"><g transform="translate(240.91664, 204.112369)"><g><path d="M 15.09375 -33.796875 L 21.578125 -33.796875 L 25.484375 -8.359375 L 28.421875 -33.796875 L 35.515625 -33.796875 L 30.03125 0 L 21.734375 0 L 18.328125 -20.734375 L 14.9375 0 L 6.640625 0 L 1.15625 -33.796875 L 8.25 -33.796875 L 11.171875 -8.359375 Z M 15.09375 -33.796875 "/></g></g></g><g fill="#0092ef" fill-opacity="1"><g transform="translate(277.843586, 204.112369)"><g><path d="M 14.734375 -26.015625 C 19.046875 -26.015625 21.203125 -23.71875 21.203125 -19.125 L 21.203125 -10.859375 L 9.34375 -10.859375 L 9.34375 -5.53125 C 9.34375 -5.257812 9.4375 -5.015625 9.625 -4.796875 C 9.820312 -4.585938 10.0625 -4.484375 10.34375 -4.484375 L 13.21875 -4.484375 C 13.5 -4.484375 13.734375 -4.585938 13.921875 -4.796875 C 14.109375 -5.015625 14.203125 -5.257812 14.203125 -5.53125 L 14.203125 -8.359375 L 21.203125 -8.359375 L 21.203125 -6.375 C 21.203125 -1.78125 19.046875 0.515625 14.734375 0.515625 L 8.828125 0.515625 C 4.503906 0.515625 2.34375 -1.78125 2.34375 -6.375 L 2.34375 -19.125 C 2.34375 -23.71875 4.503906 -26.015625 8.828125 -26.015625 Z M 9.34375 -15.46875 L 14.203125 -15.46875 L 14.203125 -20.15625 C 14.203125 -20.4375 14.109375 -20.679688 13.921875 -20.890625 C 13.734375 -21.097656 13.5 -21.203125 13.21875 -21.203125 L 10.34375 -21.203125 C 10.0625 -21.203125 9.820312 -21.097656 9.625 -20.890625 C 9.4375 -20.679688 9.34375 -20.4375 9.34375 -20.15625 Z M 9.34375 -15.46875 "/></g></g></g><g fill="#0092ef" fill-opacity="1"><g transform="translate(300.563838, 204.112369)"><g><path d="M 13.640625 -26.015625 L 14.734375 -26.015625 C 19.046875 -26.015625 21.203125 -23.71875 21.203125 -19.125 L 21.203125 -6.375 C 21.203125 -1.78125 19.046875 0.515625 14.734375 0.515625 L 13.640625 0.515625 C 11.128906 0.515625 9.332031 -0.28125 8.25 -1.875 L 8.25 0 L 2.34375 0 L 2.34375 -33.796875 L 9.34375 -33.796875 L 9.34375 -24.765625 C 10.457031 -25.597656 11.890625 -26.015625 13.640625 -26.015625 Z M 9.34375 -19.953125 L 9.34375 -5.53125 C 9.34375 -5.257812 9.4375 -5.015625 9.625 -4.796875 C 9.820312 -4.585938 10.0625 -4.484375 10.34375 -4.484375 L 13.21875 -4.484375 C 13.5 -4.484375 13.734375 -4.585938 13.921875 -4.796875 C 14.109375 -5.015625 14.203125 -5.257812 14.203125 -5.53125 L 14.203125 -19.953125 C 14.203125 -20.234375 14.109375 -20.476562 13.921875 -20.6875 C 13.734375 -20.894531 13.5 -21 13.21875 -21 L 10.34375 -21 C 10.0625 -21 9.820312 -20.894531 9.625 -20.6875 C 9.4375 -20.476562 9.34375 -20.234375 9.34375 -19.953125 Z M 9.34375 -19.953125 "/></g></g></g></svg>